<svg width="303" height="77" xmlns="http://www.w3.org/2000/svg" xmlns:xlink="http://www.w3.org/1999/xlink" xml:space="preserve" overflow="hidden"><defs><clipPath id="clip0"><rect x="14" y="12" width="303" height="77"/></clipPath><clipPath id="clip1"><rect x="15" y="12" width="302" height="77"/></clipPath><clipPath id="clip2"><rect x="15" y="12" width="302" height="78"/></clipPath><clipPath id="clip3"><rect x="15" y="12" width="302" height="78"/></clipPath></defs><g clip-path="url(#clip0)" transform="translate(-14 -12)"><g clip-path="url(#clip1)"><g clip-path="url(#clip2)"><g clip-path="url(#clip3)"><path d="M12.2542 65.568 12.2542 69.361 4.27041 69.361 4.27041 76.6817 0 76.6817 0 57.5577 14.2966 57.5577 14.2966 61.3507 4.24389 61.3507 4.24389 65.568Z" fill="#000000" fill-rule="nonzero" fill-opacity="1" transform="matrix(1.003 0 0 1 15.1693 12)"/><path d="M17.2143 57.5842 21.4847 57.5842 21.4847 76.7082 17.2143 76.7082Z" fill="#000000" fill-rule="nonzero" fill-opacity="1" transform="matrix(1.003 0 0 1 15.1693 12)"/><path d="M29.7337 62.4912 29.6807 62.4912 29.6807 76.6817 25.5694 76.6817 25.5694 57.5577 31.4048 57.5577 38.6194 70.3954 38.6724 70.3954 38.6724 57.5577 42.7837 57.5577 42.7837 76.6817 37.6645 76.6817Z" fill="#000000" fill-rule="nonzero" fill-opacity="1" transform="matrix(1.003 0 0 1 15.1693 12)"/><path d="M59.7857 73.4723 51.0062 73.4723 49.7065 76.7082 45.2504 76.7082 53.3934 57.5842 57.5047 57.5842 65.6476 76.7082 61.0854 76.7082ZM55.3562 62.4647 52.4385 69.8119 58.3269 69.8119 55.3827 62.4647Z" fill="#000000" fill-rule="nonzero" fill-opacity="1" transform="matrix(1.003 0 0 1 15.1693 12)"/><path d="M72.2787 62.4912 72.2256 62.4912 72.2256 76.6817 68.1144 76.6817 68.1144 57.5577 73.9497 57.5577 81.1643 70.3954 81.2174 70.3954 81.2174 57.5577 85.3286 57.5577 85.3286 76.6817 80.2094 76.6817Z" fill="#000000" fill-rule="nonzero" fill-opacity="1" transform="matrix(1.003 0 0 1 15.1693 12)"/><path d="M104.373 58.7778 104.373 63.4461 104.161 63.4461C102.941 61.9077 101.031 61.0854 98.6969 61.0854 95.01 61.0854 92.5963 63.4991 92.5963 67.133 92.5963 70.7668 95.01 73.1805 98.6969 73.1805 101.004 73.1805 102.967 72.3848 104.161 70.8198L104.373 70.8198 104.373 75.4881C102.835 76.496 101.111 76.9735 98.5112 76.9735 92.4106 76.9735 88.2993 72.8887 88.2993 67.133 88.2993 61.3772 92.4106 57.2925 98.5112 57.2925 101.137 57.2925 102.835 57.7434 104.373 58.7778Z" fill="#000000" fill-rule="nonzero" fill-opacity="1" transform="matrix(1.003 0 0 1 15.1693 12)"/><path d="M107.742 57.5842 112.012 57.5842 112.012 76.7082 107.742 76.7082Z" fill="#000000" fill-rule="nonzero" fill-opacity="1" transform="matrix(1.003 0 0 1 15.1693 12)"/><path d="M128.988 73.4723 120.208 73.4723 118.908 76.7082 114.452 76.7082 122.595 57.5842 126.707 57.5842 134.849 76.7082 130.261 76.7082ZM124.558 62.4647 121.64 69.8119 127.529 69.8119 124.585 62.4647Z" fill="#000000" fill-rule="nonzero" fill-opacity="1" transform="matrix(1.003 0 0 1 15.1693 12)"/><path d="M137.316 76.6817 137.316 57.5577 141.587 57.5577 141.587 72.8622 151.241 72.8622 151.241 76.6552 137.316 76.6552Z" fill="#000000" fill-rule="nonzero" fill-opacity="1" transform="matrix(1.003 0 0 1 15.1693 12)"/><path d="M173.204 58.6982 173.204 63.1013 172.991 63.1013C171.718 61.8016 169.57 61.0589 167.156 61.0589 165.061 61.0589 163.734 61.8546 163.734 63.1543 163.734 64.2418 164.557 64.7458 167.421 65.0641 172.461 65.6211 174.371 67.3452 174.371 71.0055 174.371 74.825 171.612 77 166.705 77 163.575 77 161.109 76.4165 159.597 75.329L159.597 70.9259 159.809 70.9259C161.586 72.4113 163.973 73.2336 166.573 73.2336 168.907 73.2336 170.153 72.5174 170.153 71.1381 170.153 69.9976 169.251 69.4671 166.36 69.1488 161.427 68.5918 159.544 66.9738 159.544 63.4461 159.544 59.6266 162.435 57.319 167.262 57.319 169.596 57.2925 172.01 57.876 173.204 58.6982Z" fill="#000000" fill-rule="nonzero" fill-opacity="1" transform="matrix(1.003 0 0 1 15.1693 12)"/><path d="M189.543 68.8836 181.559 68.8836 181.559 72.8887 191.611 72.8887 191.611 76.6817 177.315 76.6817 177.315 57.5577 191.611 57.5577 191.611 61.3507 181.559 61.3507 181.559 65.3028 189.543 65.3028Z" fill="#000000" fill-rule="nonzero" fill-opacity="1" transform="matrix(1.003 0 0 1 15.1693 12)"/><path d="M199.303 76.6817 195.033 76.6817 195.033 57.5577 203.6 57.5577C208.375 57.5577 210.815 59.6796 210.815 63.8174 210.815 66.8677 209.462 68.8305 206.81 69.5997L211.399 76.6817 206.385 76.6817 202.486 70.0241 199.25 70.0241 199.25 76.6817ZM203.441 66.2311C205.537 66.2311 206.518 65.4619 206.518 63.8174 206.518 62.1729 205.537 61.3772 203.441 61.3772L199.303 61.3772 199.303 66.2311Z" fill="#000000" fill-rule="nonzero" fill-opacity="1" transform="matrix(1.003 0 0 1 15.1693 12)"/><path d="M219.701 76.6817 212.168 57.5577 216.756 57.5577 221.849 71.1646 221.902 71.1646 226.968 57.5577 231.424 57.5577 223.891 76.6817Z" fill="#000000" fill-rule="nonzero" fill-opacity="1" transform="matrix(1.003 0 0 1 15.1693 12)"/><path d="M233.865 57.5842 238.135 57.5842 238.135 76.7082 233.865 76.7082Z" fill="#000000" fill-rule="nonzero" fill-opacity="1" transform="matrix(1.003 0 0 1 15.1693 12)"/><path d="M257.153 58.7778 257.153 63.4461 256.941 63.4461C255.721 61.9077 253.811 61.0854 251.477 61.0854 247.79 61.0854 245.376 63.4991 245.376 67.133 245.376 70.7668 247.79 73.1805 251.477 73.1805 253.784 73.1805 255.747 72.3848 256.941 70.8198L257.153 70.8198 257.153 75.4881C255.615 76.496 253.89 76.9735 251.291 76.9735 245.19 76.9735 241.079 72.8887 241.079 67.133 241.079 61.3772 245.19 57.2925 251.291 57.2925 253.917 57.2925 255.615 57.7434 257.153 58.7778Z" fill="#000000" fill-rule="nonzero" fill-opacity="1" transform="matrix(1.003 0 0 1 15.1693 12)"/><path d="M272.776 68.8836 264.792 68.8836 264.792 72.8887 274.845 72.8887 274.845 76.6817 260.548 76.6817 260.548 57.5577 274.845 57.5577 274.845 61.3507 264.792 61.3507 264.792 65.3028 272.776 65.3028Z" fill="#000000" fill-rule="nonzero" fill-opacity="1" transform="matrix(1.003 0 0 1 15.1693 12)"/><path d="M291.131 58.6982 291.131 63.1013 290.918 63.1013C289.645 61.8016 287.497 61.0589 285.083 61.0589 282.988 61.0589 281.661 61.8546 281.661 63.1543 281.661 64.2418 282.484 64.7458 285.348 65.0641 290.388 65.6211 292.298 67.3452 292.298 71.0055 292.298 74.825 289.539 77 284.632 77 281.502 77 279.035 76.4165 277.524 75.329L277.524 70.9259 277.736 70.9259C279.513 72.4113 281.9 73.2336 284.499 73.2336 286.834 73.2336 288.08 72.5174 288.08 71.1381 288.08 69.9976 287.178 69.4671 284.287 69.1488 279.354 68.5918 277.471 66.9738 277.471 63.4461 277.471 59.6266 280.362 57.319 285.189 57.319 287.523 57.2925 289.937 57.876 291.131 58.6982Z" fill="#000000" fill-rule="nonzero" fill-opacity="1" transform="matrix(1.003 0 0 1 15.1693 12)"/><path d="M7.82466 2.8381 0.397864 2.8381 0.397864 42.2797 7.74509 42.2797 7.74509 16.3124 17.9304 34.0307 23.4475 34.0307 33.6328 16.3124 33.6328 42.2797 40.98 42.2797 40.98 2.8381 33.5532 2.8381 20.6889 25.8081 7.82466 2.8381Z" fill="#000000" fill-rule="nonzero" fill-opacity="1" transform="matrix(1.003 0 0 1 15.1693 12)"/><path d="M185.086 2.8381 177.527 2.8381 177.527 42.2797 203.521 42.2797 203.521 35.4364 185.086 35.4364 185.086 2.8381Z" fill="#000000" fill-rule="nonzero" fill-opacity="1" transform="matrix(1.003 0 0 1 15.1693 12)"/><path d="M154.928 2.8381 162.488 2.8381 162.488 42.2797 154.928 42.2797Z" fill="#000000" fill-rule="nonzero" fill-opacity="1" transform="matrix(1.003 0 0 1 15.1693 12)"/><path d="M213.149 2.8381 220.709 2.8381 220.709 42.2797 213.149 42.2797Z" fill="#000000" fill-rule="nonzero" fill-opacity="1" transform="matrix(1.003 0 0 1 15.1693 12)"/><path d="M282.643 35.4364 282.643 25.3837 298.796 25.3837 298.796 18.6731 282.643 18.6731 282.643 9.76094 300.759 9.76094 300.759 2.8381 275.11 2.8381 275.11 42.2797 300.759 42.2797 300.759 35.4364 282.643 35.4364Z" fill="#000000" fill-rule="nonzero" fill-opacity="1" transform="matrix(1.003 0 0 1 15.1693 12)"/><path d="M262.803 9.78746 262.803 2.8381 234.395 2.8381 234.395 9.76094 253.837 9.76094 233.387 35.4364 233.387 42.2797 262.829 42.2797 262.829 35.4364 242.724 35.4364 262.803 9.78746Z" fill="#000000" fill-rule="nonzero" fill-opacity="1" transform="matrix(1.003 0 0 1 15.1693 12)"/><path d="M60.5284 21.6438C60.5356 13.9311 66.794 7.68467 74.5064 7.69191 77.0501 7.69432 79.545 8.39138 81.7213 9.70789L81.7213 1.24664C70.4546-2.75107 58.0802 3.14172 54.0825 14.4085 53.2581 16.7317 52.8366 19.1787 52.8364 21.6438 52.8319 23.6548 53.1178 25.656 53.6852 27.5853L61.8812 27.5853C60.9854 25.733 60.5228 23.7013 60.5284 21.6438Z" fill="#000000" fill-rule="nonzero" fill-opacity="1" transform="matrix(1.003 0 0 1 15.1693 12)"/><path d="M90.1295 23.5005C90.1224 31.2132 83.864 37.4597 76.1512 37.4523 73.6078 37.4499 71.1129 36.7528 68.9366 35.4364L68.9366 43.8977C80.2033 47.8954 92.5777 42.0025 96.5754 30.7358 97.3998 28.4125 97.8213 25.9657 97.8216 23.5005 97.8261 21.4895 97.5401 19.4884 96.9728 17.5591L88.7768 17.5591C89.6725 19.4113 90.1351 21.4431 90.1295 23.5005Z" fill="#000000" fill-rule="nonzero" fill-opacity="1" transform="matrix(1.003 0 0 1 15.1693 12)"/><path d="M50.5806 18.5361 100.301 18.5361 100.301 26.69 50.5806 26.69Z" fill="#F45000" fill-rule="nonzero" fill-opacity="1" transform="matrix(0.744377 -0.668235 0.67024 0.74215 19.4206 68.2076)"/><path d="M135.141 21.5642C138.802 20.4502 140.473 17.2143 140.473 13.607 140.473 7.18808 136.176 2.8381 126.707 2.8381L110.288 2.8381 110.288 42.2797 127.608 42.2797C138.271 42.2797 142.462 37.5584 142.462 30.6621 142.435 26.1264 139.942 22.6252 135.141 21.5642ZM117.715 9.76094 126.653 9.76094C130.818 9.76094 132.993 11.0076 132.993 14.3762 132.993 17.6121 130.818 19.1505 126.653 19.1505L117.715 19.1505ZM127.423 35.4364 117.715 35.4364 117.715 24.9594 127.423 24.9594C132.25 24.9594 134.531 26.71 134.531 30.2907 134.531 33.8715 132.224 35.4364 127.423 35.4364Z" fill="#000000" fill-rule="nonzero" fill-opacity="1" transform="matrix(1.003 0 0 1 15.1693 12)"/></g></g></g></g></svg>